<?xml version="1.0" encoding="utf-8"?>
<svg xmlns="http://www.w3.org/2000/svg" width="264" height="162" viewBox="0 0 264 162">
    <path d="M250.634 161.357l12.866-9.607V.5H.5v151.75l9 6.704V42.5h39v112.6l4.393-3.73 7.607 5.33V42.5h155v110.85l9.75 8.03 13.917-10.02z" fill="#fff"/>
    <path d="M1 1v150.998l8 5.96V42h40v112.02l3.274-2.78.59-.5.632.442L60 155.738V42h156v111.1l9.257 7.66 13.295-9.57.645-.463.598.52 10.864 9.47L263 151.5V1H1M0 0h264v152l-13.39 10-11.475-10-13.89 10L215 153.6V43H61v114.66L52.922 152 48 156.18V43H10v116.95L0 152.5V0z" fill="#e5e5e5"/>
    <path d="M61 157.66V43h154v110.6l-2.145-1.6-12.555 10-13.81-10-14.228 10-12.972-10-12.973 10-13.81-10-12.137 10-13.39-10-14.23 10-12.972-10-12.974 10L61 157.66zM253 36c0-7.732-6.268-14-14-14s-14 6.268-14 14 6.268 14 14 14 14-6.268 14-14zM10 159.95V43h38v113.18L40.45 162l-13.812-10-13.89 10L10 159.95zm216-27.596V72h25v60.354h-25zM31.49 5h-26v6h26V5zm24 0h-22v6h22zM122 6v4h92V6h-92m-1-1h94v6h-94V5zM79.49 5h-22v6h22zm23 0h-13v6h13z" fill="#e5e5e5"/>
    <path d="M110.49 5h-6v6h6zM255 5h-32v6h32zm-43 2h-2v2h2zm14 52v-5h25v5h-25z" fill="#e5e5e5"/>
    <path d="M262 14.5H2" fill="#e5e5e5" stroke="#e5e5e5"/>
    <path d="M87.49 5h-6v6h6z" fill="#347bff"/>
    <rect width="78.835" height="93.208" rx=".106" ry=".099" x="-123.697" y="18.566" transform="scale(-1 1)" fill="#347bff"/>
    <path d="M88.817 19l-4.537-6-4.537 6" fill="#347bff"/>
    <path d="M84.28 44.254c7.436 0 12.782 4.648 12.782 11.62v11.62c0 4.648 0 6.972 4.648 6.972v2.324H66.85v-2.324c4.648 0 4.648-2.324 4.648-6.972v-11.62c0-6.972 5.345-11.62 12.782-11.62zm6.972 37.184c0 2.324-3.72 4.648-6.972 4.648-3.254 0-6.972-2.324-6.972-4.648h13.944z" fill="#fff"/>
</svg>
