<?xml version="1.0" encoding="utf-8"?>
<svg xmlns="http://www.w3.org/2000/svg" width="264" height="162" viewBox="0 0 264 162">
    <path d="M13.366 161.357L.5 151.75V.5h263v151.75l-9 6.704V42.5h-39v112.6l-4.393-3.73-7.607 5.33V42.5h-155v110.85l-9.75 8.03-13.917-10.02z" fill="#fff"/>
    <path d="M263 1v150.998l-8 5.96V42h-40v112.02l-3.274-2.78-.59-.5-.632.442-6.504 4.556V42H48v111.1l-9.257 7.66-13.295-9.57-.645-.463-.598.52-10.864 9.47L1 151.5V1h262m1-1H0v152l13.39 10 11.475-10 13.89 10L49 153.6V43h154v114.66l8.078-5.66 4.922 4.18V43h38v116.95l10-7.45V0z" fill="#e5e5e5"/>
    <path d="M203 157.66V43H49v110.6l2.145-1.6L63.7 162l13.81-10 14.228 10 12.972-10 12.973 10 13.81-10 12.137 10 13.39-10 14.23 10 12.972-10 12.974 10 5.804-4.34zM11 36c0-7.732 6.268-14 14-14s14 6.268 14 14-6.268 14-14 14-14-6.268-14-14zm243 123.95V43h-38v113.18l7.55 5.82 13.812-10 13.89 10 2.748-2.05zM38 132.354V72H13v60.354h25zM232.51 5h26v6h-26V5zm-24 0h22v6h-22zM142 6v4H50V6h92m1-1H49v6h94V5zm41.51 0h22v6h-22zm-23 0h13v6h-13z" fill="#e5e5e5"/>
    <path d="M153.51 5h6v6h-6zM9 5h32v6H9zm43 2h2v2h-2zM38 59v-5H13v5h25z" fill="#e5e5e5"/>
    <path d="M2 14.5h260" fill="#e5e5e5" stroke="#e5e5e5"/>
    <path d="M176.51 5h6v6h-6z" fill="#347bff"/>
    <rect width="78.835" height="93.208" rx=".106" ry=".099" x="140.303" y="18.566" fill="#347bff"/>
    <path d="M175.183 19l4.537-6 4.537 6" fill="#347bff"/>
    <path d="M179.72 44.254c-7.436 0-12.782 4.648-12.782 11.62v11.62c0 4.648 0 6.972-4.648 6.972v2.324h34.86v-2.324c-4.648 0-4.648-2.324-4.648-6.972v-11.62c0-6.972-5.345-11.62-12.782-11.62zm-6.972 37.184c0 2.324 3.72 4.648 6.972 4.648 3.254 0 6.972-2.324 6.972-4.648h-13.944z" fill="#fff"/>
</svg>
