<?xml version="1.0" encoding="UTF-8"?>
<svg xmlns="http://www.w3.org/2000/svg" width="30" height="30" viewBox="0 0 30 30">
	<title>
		edit user talk
	</title>
    <path fill="#36c" fill-rule="evenodd" d="M27.143 10.143V23L30 25.857H10V10.143h17.143zM2.857 3H20v5.714H8.57v10H0l2.857-2.857V3zm18.007 17.636c-.49-.163-.49-.6-.546-1.09v-.055c.764-.65 1.364-1.74 1.364-2.94 0-2.564-1.09-3.546-2.727-3.546-1.146 0-2.728.656-2.728 3.546 0 1.145.6 2.236 1.364 2.945v.055c0 .49-.05.927-.54 1.09 0 0-1.58.6-2.18.82-.71.217-1.366.544-1.366 1.362v.546h10.91v-.546c0-.654-.436-1.09-1.364-1.363-.655-.22-2.18-.82-2.18-.82z"/>
</svg>
