<?xml version="1.0" encoding="UTF-8" standalone="no"?>
<svg width="30" height="30" viewBox="0 0 30 30" xmlns="http://www.w3.org/2000/svg">
    <g id="Page-1" fill="none" fill-rule="evenodd">
        <path fill="#165CA0" d="M27.143 10.143V23L30 25.857H10V10.143h17.143zM2.857 3H20v5.714H8.57v10H0l2.857-2.857V3zm18.007 17.636c-.49-.163-.49-.6-.546-1.09v-.055c.764-.654 1.364-1.745 1.364-2.945 0-2.563-1.09-3.545-2.727-3.545-1.146 0-2.728.655-2.728 3.545 0 1.146.6 2.237 1.364 2.946v.055c0 .49-.054.928-.545 1.09 0 0-1.58.6-2.18.82-.71.218-1.365.545-1.365 1.363v.546h10.91v-.546c0-.654-.437-1.09-1.365-1.363-.654-.22-2.18-.82-2.18-.82z" id="path-1"/>
    </g>
</svg>
