<?xml version="1.0" encoding="UTF-8"?>
<svg xmlns="http://www.w3.org/2000/svg" width="30" height="30" viewBox="0 0 30 30">
	<title>
		global
	</title>
    <path fill="#36c" fill-rule="evenodd" d="M15 30C6.716 30 0 23.284 0 15 0 6.716 6.716 0 15 0c8.284 0 15 6.716 15 15 0 8.284-6.716 15-15 15zm.047-25.838c-1.188.034-3.375.315-3.375.315s.36.686.36.99c0 .304-.09 1.12-.09 1.485 0 .364 1.332.076 1.575-.045.243-.122 1.845-1.53 1.845-1.53s.587-.882.405-1.125c-.046-.06-.324-.1-.72-.09zM8.612 5.197c.086.945 1.215 1.575 1.215 1.575l.18-.63s-.966-.945-1.395-.945zm-1.125.63s-.585.5-1.53.585c-.355.032-1.073-.104-1.845-.225a14.059 14.059 0 0 0-3.285 7.11l.315-.45s1.108 1.988 1.71 2.16c.6.172 1.284.78 1.8 1.125.515.344.85 2.12.765 3.15-.086 1.03.695 1.158 1.125 1.845.43.687 1.366 4.79 1.71 5.22.343.43.683-1.804.855-2.835.172-1.03 2.43-2.93 2.43-3.96 0-1.03-2.59-2.5-3.105-3.015-.516-.516-2.128-.765-3.33-.765-1.203 0-1.22-1.624-2.25-1.71-1.03-.086.18-1.44.18-1.44s2.818-.45 3.42-.45c.6 0 .777-1.702 1.035-2.475.257-.773 2.168-.7 2.34-1.215.172-.516-.782-1.035-1.125-1.035-.344 0-1.813.524-2.07.18-.258-.344 1.485-1.395 1.485-1.395l-.63-.405zm13.05 0c-.284.022-.54.074-.63.135-.182.12-.673.31-.855.585-.182.273-.393.898-.18 1.08.212.182.373.226.495.135.12-.09 1.048-.887 1.17-.765.12.12.407.855.225.855-.182 0-1.485.405-1.485.405s-.005-.247-.09-.225c-.086.02-.005.338-.09.36-.086.02-1.215.54-1.215.54s-.143.127-.315.27l-.36.36c-.01.01-.04.036-.045.045-.086.15-.562.863-.54 1.035.02.172-.1.54.135.54.236 0 1.827-.982 1.935-.81.107.17.27.18.27.18s-.108-.225 0-.225c.107 0 .81.27.81.27s-.106-.448.045-.405c.15.043.84.855.99.855.15 0 .516-.01.495-.225-.022-.215-.1-.482.18-.675.28-.194 1.133-.333 1.305-.225.17.107.437.23.18.36-.258.13-.57-.02-.72.045-.15.064-.564.48-.585.63-.022.15.808.814.765.9-.043.086-.47.495-.9.495-.43 0-3.578-.787-4.05-.765-.473.02-.887.143-1.08.315-.194.17-1.018.933-1.125 1.17-.108.236-.573 1.378-.315 1.98.257.6.84 1.692 1.485 1.8.644.107 1.426.154 1.62.09.193-.065 1.238 1.095 1.26 1.89.02.794-.057 2.79.18 3.285.236.494.418 1.414 1.17 1.35.75-.065 1.362-.242 1.62-.585.257-.344.976-2.096 1.17-3.105.193-1.01 1.086-2.526 1.215-3.105.13-.58.146-.91-.09-1.08-.237-.172-.7-.167-.72-.36-.022-.194.3-.022.495 0 .193.02.908-.032 1.08-.225.17-.194.467-.823.36-1.08-.108-.258-.585-.81-.585-.81s1.926.232 2.7.855c.45.362.812.83 1.08 1.215a14.124 14.124 0 0 0-3.645-9.225c-.02.002-.078.045-.09.045-.334 0-2.925.495-2.925.495s-.565-.645-.99-.675a5.59 5.59 0 0 0-.81 0zm-3.285 1.89s-.306 1.245.135 1.215c.44-.03-.135-1.215-.135-1.215zm-.585.54s-.527.268-.405.405c.12.137.374.21.45.09.076-.122-.045-.495-.045-.495zm8.235 11.655c-.175.038-.38.178-.495.315-.114.137-.286.62-.225.9.06.28.314.66.405.63.09-.03.33-.12.36-.63.03-.51.113-.966.045-1.08a1.089 1.089 0 0 0-.09-.135z"/>
</svg>
