<?xml version="1.0" encoding="UTF-8" standalone="no"?>
<!-- Created with Inkscape (http://www.inkscape.org/) -->

<svg
   xmlns:dc="http://purl.org/dc/elements/1.1/"
   xmlns:cc="http://creativecommons.org/ns#"
   xmlns:rdf="http://www.w3.org/1999/02/22-rdf-syntax-ns#"
   xmlns:svg="http://www.w3.org/2000/svg"
   xmlns="http://www.w3.org/2000/svg"
   version="1.1"
   width="100%"
   height="100%"
   viewBox="0 0 24 24"
   id="Layer_1"
   xml:space="preserve"><metadata
     id="metadata13"><rdf:RDF><cc:Work
         rdf:about=""><dc:format>image/svg+xml</dc:format><dc:type
           rdf:resource="http://purl.org/dc/dcmitype/StillImage" /><dc:title></dc:title></cc:Work></rdf:RDF></metadata><defs
     id="defs11" /><g
     id="g3"><path
       d="m 15.8,3.6 c -2.1,0 -3.6,1.9 -5.1,3.3 0.2,0 0.5,-0.1 0.8,-0.1 0.5,0 1,0.1 1.5,0.3 0.8,-0.8 1.6,-1.7 2.8,-1.7 0.6,0 1.3,0.3 1.8,0.7 1,1 1,2.6 0,3.6 L 15,12.3 c -0.4,0.4 -1.2,0.7 -1.8,0.7 -1.4,0 -2.1,-0.9 -2.6,-2 l -1.3,1.3 c 0.8,1.5 2,2.6 3.8,2.6 1.2,0 2.3,-0.5 3,-1.3 L 18.7,11 C 19.6,10.1 20.2,9 20.2,7.7 20,5.5 18,3.6 15.8,3.6 z"
       id="path5"
       style="fill:#347bff;fill-opacity:1" /><path
       d="m 11.5,15.7 -0.9,0.9 C 10.2,17 9.4,17.3 8.8,17.3 8.2,17.3 7.5,17 7,16.6 6,15.6 6,13.9 7,13 L 9.6,10.4 C 10,10 10.8,9.7 11.4,9.7 c 1.4,0 2.1,1 2.6,2 l 1.3,-1.3 c -0.8,-1.5 -2,-2.6 -3.8,-2.6 -1.2,0 -2.3,0.5 -3,1.3 l -2.6,2.6 c -1.7,1.7 -1.7,4.4 0,6 1.6,1.6 4.4,1.7 5.9,0 l 1.9,-1.9 c -0.3,0.1 -0.6,0.1 -0.9,0.1 -0.5,0 -0.9,0 -1.3,-0.2 z"
       id="path7"
       style="fill:#347bff;fill-opacity:1" /></g></svg>