<?xml version="1.0" encoding="utf-8"?>
<svg width="30" height="30" viewBox="0 0 30 30" xmlns="http://www.w3.org/2000/svg">
    <path fill="#165CA0" d="M27.143 23L30 25.857H10V10.143h17.143V23zM20 3v5.714H8.57v10H0l2.857-2.857V3H20zm5.016 14.242c0 .613-.083 1.16-.25 1.645-.167.484-.4.893-.7 1.226-.303.333-.655.586-1.058.758-.403.177-.836.26-1.298.26-.43 0-.783-.09-1.057-.28-.274-.19-.433-.44-.476-.75h-.064c-.15.248-.387.48-.71.7-.322.22-.726.33-1.21.33-.365 0-.69-.065-.975-.2-.285-.134-.527-.322-.726-.564-.2-.242-.352-.53-.46-.863-.107-.332-.16-.7-.16-1.096 0-.45.072-.895.217-1.33.14-.436.35-.823.624-1.162.274-.336.6-.61.976-.82.377-.21.8-.315 1.275-.315.408 0 .747.085 1.016.257.27.172.44.377.518.613h.015l.113-.548h1.74l-.5 2.532c-.053.257-.1.504-.144.74-.042.238-.064.436-.064.598 0 .15.033.285.097.403.065.12.188.18.37.18.324 0 .61-.186.864-.557.253-.37.38-.933.38-1.686 0-.623-.103-1.174-.307-1.653-.204-.48-.49-.88-.862-1.2-.37-.326-.81-.57-1.322-.737-.512-.168-1.074-.25-1.686-.25-.656 0-1.256.114-1.8.346-.54.23-1.007.547-1.394.95-.387.403-.688.885-.903 1.444-.215.56-.323 1.16-.323 1.807 0 .69.114 1.308.34 1.856.226.55.546 1.017.96 1.404.414.387.903.686 1.467.895.564.21 1.185.315 1.862.315.775 0 1.466-.12 2.074-.364.607-.24 1.153-.582 1.637-1.023l1.02 1.13c-.626.61-1.354 1.06-2.187 1.345-.833.285-1.74.427-2.717.427-.915 0-1.754-.148-2.517-.444-.765-.292-1.42-.704-1.97-1.23-.55-.527-.976-1.16-1.282-1.896-.306-.737-.46-1.54-.46-2.41 0-.86.165-1.658.493-2.39.327-.73.77-1.366 1.33-1.903.56-.54 1.215-.96 1.967-1.266.753-.306 1.56-.46 2.42-.46.752 0 1.48.11 2.185.33.704.22 1.323.553 1.855.994.532.44.96.986 1.282 1.637.32.65.48 1.41.48 2.283zm-4.984.355c0-.162-.013-.317-.04-.468-.027-.156-.073-.29-.137-.408-.065-.118-.156-.213-.274-.282-.114-.07-.264-.104-.45-.104-.2 0-.384.06-.55.184-.16.125-.3.286-.42.485-.113.2-.204.422-.27.67-.063.247-.096.49-.096.725 0 .27.063.525.187.767.123.24.357.362.7.362.238 0 .44-.066.614-.19.173-.123.313-.28.42-.475.108-.193.19-.402.243-.628.053-.227.08-.44.08-.646z" fill-rule="evenodd"/>
</svg>
