<?xml version="1.0" encoding="UTF-8"?>
<svg xmlns="http://www.w3.org/2000/svg" width="30" height="30" viewBox="0 0 30 30">
	<title>
		mention
	</title>
    <path fill="#36c" fill-rule="evenodd" d="M27.143 23L30 25.857H10V10.143h17.143V23zM20 3v5.714H8.57v10H0l2.857-2.857V3H20zm5.016 14.242c0 .613-.083 1.16-.25 1.645-.167.484-.4.893-.7 1.226a3.021 3.021 0 0 1-1.058.758 3.19 3.19 0 0 1-1.298.26c-.43 0-.783-.09-1.057-.28a1.063 1.063 0 0 1-.476-.75h-.064c-.15.248-.387.48-.71.7-.322.22-.726.33-1.21.33a2.25 2.25 0 0 1-.975-.2 2.067 2.067 0 0 1-.726-.564c-.2-.242-.352-.53-.46-.863a3.57 3.57 0 0 1-.16-1.096c0-.45.072-.895.217-1.33.14-.436.35-.823.624-1.162.274-.336.6-.61.976-.82.377-.21.8-.315 1.275-.315.408 0 .747.085 1.016.257.27.172.44.377.518.613h.015l.113-.548h1.74l-.5 2.532c-.053.257-.1.504-.144.74a3.551 3.551 0 0 0-.064.598c0 .15.033.285.097.403.065.12.188.18.37.18.324 0 .61-.186.864-.557.253-.37.38-.933.38-1.686 0-.623-.103-1.174-.307-1.653-.204-.48-.49-.88-.862-1.2-.37-.326-.81-.57-1.322-.737a5.383 5.383 0 0 0-1.686-.25c-.656 0-1.256.114-1.8.346-.54.23-1.007.547-1.394.95a4.272 4.272 0 0 0-.903 1.444 4.99 4.99 0 0 0-.323 1.807c0 .69.114 1.308.34 1.856.226.55.546 1.017.96 1.404a4.32 4.32 0 0 0 1.467.895 5.3 5.3 0 0 0 1.862.315c.775 0 1.466-.12 2.074-.364a5.315 5.315 0 0 0 1.637-1.023l1.02 1.13a5.775 5.775 0 0 1-2.187 1.345 8.348 8.348 0 0 1-2.717.427c-.915 0-1.754-.148-2.517-.444a5.813 5.813 0 0 1-1.97-1.23 5.53 5.53 0 0 1-1.282-1.896 6.222 6.222 0 0 1-.46-2.41c0-.86.165-1.658.493-2.39a6.015 6.015 0 0 1 3.297-3.169 6.368 6.368 0 0 1 2.42-.46c.752 0 1.48.11 2.185.33.704.22 1.323.553 1.855.994.532.44.96.986 1.282 1.637.32.65.48 1.41.48 2.283zm-4.984.355c0-.162-.013-.317-.04-.468a1.315 1.315 0 0 0-.137-.408.728.728 0 0 0-.274-.282.852.852 0 0 0-.45-.104c-.2 0-.384.06-.55.184-.16.125-.3.286-.42.485a2.939 2.939 0 0 0-.366 1.395c0 .27.063.525.187.767.123.24.357.362.7.362.238 0 .44-.066.614-.19.173-.123.313-.28.42-.475.108-.193.19-.402.243-.628.053-.227.08-.44.08-.646z"/>
</svg>
