<?xml version="1.0" encoding="UTF-8" standalone="no"?>
<svg width="30" height="30" viewBox="0 0 30 30" xmlns="http://www.w3.org/2000/svg">
    <g fill="none" fill-rule="evenodd">
        <path fill="#165CA0" d="M27.143 23L30 25.857H10V10.143h17.143V23zM20 3v5.714H8.57v10H0l2.857-2.857V3H20zm5.016 14.242c0 .613-.083 1.16-.25 1.645-.167.484-.4.893-.7 1.226-.303.333-.655.586-1.058.758-.403.173-.836.26-1.298.26-.43 0-.783-.095-1.057-.283-.274-.188-.433-.438-.476-.75h-.064c-.15.247-.387.48-.71.7-.322.222-.726.332-1.21.332-.365 0-.69-.068-.975-.203-.285-.134-.527-.322-.726-.564-.2-.242-.352-.53-.46-.863-.107-.333-.16-.7-.16-1.097 0-.45.072-.895.217-1.33.144-.436.354-.823.628-1.162.274-.337.6-.612.976-.82.376-.21.8-.316 1.274-.316.408 0 .747.086 1.016.258.27.172.44.377.516.613h.016l.113-.548h1.74l-.5 2.532c-.053.257-.1.504-.144.74-.043.238-.065.436-.065.598 0 .15.034.285.098.403.065.12.188.178.37.178.324 0 .61-.185.864-.556.253-.37.38-.933.38-1.686 0-.623-.103-1.174-.307-1.653-.205-.478-.492-.88-.863-1.2-.37-.324-.812-.57-1.323-.735-.512-.167-1.074-.25-1.686-.25-.656 0-1.256.115-1.8.347-.542.23-1.007.548-1.394.95-.387.404-.688.886-.903 1.445-.215.56-.323 1.16-.323 1.806 0 .688.113 1.307.34 1.855.225.55.545 1.017.96 1.404.413.387.902.686 1.466.895.565.21 1.186.314 1.863.314.774 0 1.465-.12 2.073-.363.607-.24 1.153-.582 1.637-1.023l1.016 1.13c-.625.612-1.353 1.06-2.186 1.346-.834.285-1.74.427-2.718.427-.914 0-1.753-.148-2.516-.444-.764-.295-1.42-.707-1.968-1.233-.548-.527-.976-1.16-1.282-1.896-.307-.736-.46-1.54-.46-2.41 0-.86.164-1.657.492-2.388.328-.732.77-1.367 1.33-1.904.56-.538 1.216-.96 1.968-1.266.753-.307 1.56-.46 2.42-.46.752 0 1.48.11 2.185.33.704.22 1.323.552 1.855.993.532.44.96.986 1.282 1.637.323.65.484 1.41.484 2.282zm-4.984.355c0-.162-.013-.317-.04-.468-.027-.152-.073-.286-.137-.404-.065-.118-.156-.213-.274-.282-.118-.07-.268-.105-.45-.105-.205 0-.388.06-.55.184-.16.124-.3.285-.42.484-.117.2-.208.422-.273.67-.064.247-.097.49-.097.725 0 .27.062.524.186.766.123.24.357.362.7.362.238 0 .442-.062.614-.185.172-.124.312-.282.42-.476.107-.193.188-.402.242-.628.053-.226.08-.44.08-.645z" />
    </g>
</svg>
