<?xml version="1.0" encoding="utf-8"?>
<svg width="30" height="30" viewBox="0 0 30 30" xmlns="http://www.w3.org/2000/svg">
    <path fill="#165CA0" d="M28.444 14.444l-9.333 10.89-6.22-6.223-1.553 1.56 7.778 7.778L30 16l-1.556-1.556zm-6.222 4.667V2H2v20.222c0 2.645 2.022 4.667 4.667 4.667h7.777l-4.666-4.67H5.11V20.66h4.046l1.555-1.556h-5.6V17.55h14v1.556H16l1.556 1.557h3.11l1.556-1.556zm-17.11-14h6.22v1.56h-6.22V5.11zm0 3.116h6.22V9.78h-6.22V8.22zm0 3.11h6.22v1.557h-6.22v-1.556zm14 4.668h-14V14.45h14V16zm-6.223-3.11V5.11h6.22v7.78h-6.22z" fill-rule="evenodd"/>
</svg>
