<?xml version="1.0" encoding="UTF-8" standalone="no"?>
<svg width="30" height="30" viewBox="0 0 30 30" xmlns="http://www.w3.org/2000/svg">
    <g fill="none" fill-rule="evenodd">
        <path fill="#165CA0" d="M28.444 14.444l-9.333 10.89-6.22-6.223-1.557 1.557 7.778 7.777L30 16l-1.556-1.556zm-6.222 4.667V2H2v20.222c0 2.645 2.022 4.667 4.667 4.667h7.777L9.778 22.22H5.11v-1.555h4.046l1.555-1.556h-5.6v-1.554h14v1.555H16l1.556 1.557h3.11l1.556-1.556zm-17.11-14h6.22v1.557h-6.22V5.11zm0 3.112h6.22v1.556h-6.22V8.222zm0 3.11h6.22v1.557h-6.22v-1.557zm14 4.668h-14v-1.556h14V16zm-6.223-3.11V5.11h6.22v7.78h-6.22z"/>
    </g>
</svg>
