<?xml version="1.0" encoding="UTF-8"?>
<svg xmlns="http://www.w3.org/2000/svg" width="30" height="30" viewBox="0 0 30 30">
	<title>
		user rights
	</title>
    <path fill="#36c" fill-rule="evenodd" d="M14.086 16.562v-.105c1.465-1.256 2.617-3.35 2.617-5.653C16.703 5.884 14.61 4 11.468 4 9.27 4 6.234 5.256 6.234 10.804c0 2.2 1.152 4.293 2.617 5.653v.105c0 .942-.1 1.78-1.042 2.094 0 0-3.035 1.15-4.187 1.57-1.36.42-2.62 1.047-2.62 2.617v1.047h14.957l-.053-.053.455-.682L17 22l-1.164-.024-.836-.14v-3.23c-.81-.347-.815-1.148-.914-2.044zM29.6 21.075V18.61l-1.53-.255c-.085-.34-.255-.68-.51-1.19l.935-1.275-1.785-1.785-1.275.935a4.542 4.542 0 0 0-1.19-.51l-.17-1.53H21.61l-.255 1.53c-.425.085-.765.255-1.19.51l-1.275-.935-1.785 1.785.85 1.275c-.255.425-.34.765-.51 1.19l-1.445.17v2.465l1.53.255c.085.425.255.765.51 1.19l-.85 1.275 1.785 1.785 1.275-.85c.34.17.765.34 1.19.51l.255 1.53h2.55l.255-1.53c.425-.085.765-.255 1.19-.51l1.275.935 1.785-1.785-.935-1.275c.255-.425.425-.85.51-1.19l1.275-.255zm-6.8 1.275c-1.445 0-2.55-1.105-2.55-2.55 0-1.445 1.105-2.55 2.55-2.55 1.445 0 2.55 1.105 2.55 2.55 0 1.445-1.105 2.55-2.55 2.55z"/>
</svg>
